<svg xmlns="http://www.w3.org/2000/svg" viewBox="0 0 32 32"><path fill="#011c41" d="M24.47,10.85a1,1,0,0,0,1,0l4-2A1,1,0,0,0,30,8V6a1,1,0,0,0-1-1h-.72A17.12,17.12,0,0,0,8.57,7.16L8,6.59V3A1,1,0,0,0,7,2H3A1,1,0,0,0,2,3V7A1,1,0,0,0,3,8H6.59l.57.57A17.12,17.12,0,0,0,5,28.28V29a1,1,0,0,0,1,1H8a1,1,0,0,0,.89-.55l2-4A1,1,0,0,0,10,24H8.43l-.12-.38,7-6.95L21,22.41V25a1,1,0,0,0,.29.71l4,4A1,1,0,0,0,26,30a.84.84,0,0,0,.38-.08A1,1,0,0,0,27,29V27h2a1,1,0,0,0,.92-.62,1,1,0,0,0-.21-1.09l-4-4A1,1,0,0,0,25,21H22.41l-5.74-5.74,6.8-6.79a1,1,0,0,0,.11-.17l.42.13V10A1,1,0,0,0,24.47,10.85ZM26.59,25H26a1,1,0,0,0-1,1v.59l-2-2V23h1.59ZM4,4H6V6H4ZM7.82,21.29a12.16,12.16,0,0,1,2.83-9.22l3.2,3.19Zm7.44-7.44-3.19-3.2a12.16,12.16,0,0,1,9.22-2.83ZM9.91,9.91A14.19,14.19,0,0,0,6.82,25.38a1,1,0,0,0,.92.62h.64l-1,2H7a1.05,1.05,0,0,0-.13-.49A15.1,15.1,0,0,1,27.51,6.86,1,1,0,0,0,28,7v.38l-2,1V7.74a1,1,0,0,0-.62-.92A14.19,14.19,0,0,0,9.91,9.91Z" data-name="arrow &amp; bow"/></svg>