<svg xmlns="http://www.w3.org/2000/svg" fill-rule="evenodd" stroke-linejoin="round" stroke-miterlimit="2" clip-rule="evenodd" viewBox="0 0 32 32"><path d="M6.414,21.157l-2.828,2.828c-0.781,0.781 -0.781,2.048 -0,2.829c-0,-0 1.414,1.414 1.414,1.414c0.78,0.781 2.048,0.781 2.828,0l2.829,-2.828l-4.243,-4.243Zm0.015,-9.485l-0.024,-0c-0.363,0.003 -0.712,0.205 -0.885,0.552l-1.415,2.829c-0.192,0.385 -0.117,0.85 0.188,1.154l11.313,11.314c0.191,0.19 0.444,0.291 0.701,0.293l0.019,-0c0.148,-0.002 0.296,-0.037 0.435,-0.106l2.828,-1.414c0.494,-0.247 0.694,-0.848 0.447,-1.342c-0.169,-0.339 -0.506,-0.54 -0.861,-0.552l-0.024,-0c-0.154,-0.002 -0.31,0.032 -0.456,0.105l-2.184,1.092c-0,0 -10.294,-10.294 -10.294,-10.294c-0,-0 1.091,-2.184 1.091,-2.184c0.247,-0.494 0.047,-1.095 -0.447,-1.342c-0.139,-0.069 -0.286,-0.103 -0.432,-0.105Zm5.642,6.657l10.606,-10.607c0.391,-0.39 1.024,-0.39 1.415,-0c0.39,0.39 0.39,1.024 -0,1.414l-10.607,10.607l2.829,2.828l12.02,-12.021c0.188,-0.187 0.293,-0.442 0.293,-0.707l0,-5.657c0,-0.552 -0.447,-1 -1,-1l-5.657,0c-0.265,0 -0.519,0.106 -0.707,0.293l-12.021,12.021l2.829,2.829Z"/></svg>